PathFileType	4	(X/Y/Z)	/Users/niels/Desktop/University/Third Semester/Perception and Action/Exam/Gymnastics Motion Tracking/Code for Gym Tracking/Analyzed Data/Webcam_Backflip/id4_1_baseline_Sports2D/id4_1_baseline_Sports2D_px_person00.trc
DataRate	CameraRate	NumFrames	NumMarkers	Units	OrigDataRate	OrigDataStartFrame	OrigNumFrames
29.80132450331126	29.80132450331126	11	22	m	29.80132450331126	18	151
Frame#	Time	Hip			RHip			RKnee			RAnkle			RBigToe			RSmallToe			RHeel			LHip			LKnee			LAnkle			LBigToe			LSmallToe			LHeel			Neck			Head			Nose			RShoulder			RElbow			RWrist			LShoulder			LElbow			LWrist		
		X1	Y1	Z1	X2	Y2	Z2	X3	Y3	Z3	X4	Y4	Z4	X5	Y5	Z5	X6	Y6	Z6	X7	Y7	Z7	X8	Y8	Z8	X9	Y9	Z9	X10	Y10	Z10	X11	Y11	Z11	X12	Y12	Z12	X13	Y13	Z13	X14	Y14	Z14	X15	Y15	Z15	X16	Y16	Z16	X17	Y17	Z17	X18	Y18	Z18	X19	Y19	Z19	X20	Y20	Z20	X21	Y21	Z21	X22	Y22	Z22
18	0.604	0.9191637659898082	-0.5852180241704235	0.0	0.9237852206111347	-0.58594499742705	0.0	0.9620594099442477	-0.6873879925549127	0.0	0.9519347213332001	-0.7981764227805933	0.0	0.991089407691728	-0.8149662727439205	0.0	0.9859099512979825	-0.8185559939801341	0.0	0.9453140163255532	-0.8125629203606944	0.0	0.9165931363046679	-0.5844886923187274	0.0	0.9577777637374842	-0.6864358745050855	0.0	0.9479145777416943	-0.7927621647361961	0.0	0.9861935265227213	-0.8131742439415482	0.0	0.9793822246586494	-0.8083135780426629	0.0	0.9406707706217015	-0.8081482759965617	0.0	1.0271676721798721	-0.48160634975769134	0.0	1.084088667049262	-0.4374400064717121	0.0	1.0725041949078982	-0.4728275091887597	0.0	1.0284230187546315	-0.4963529476216249	0.0	1.0186479878092527	-0.572439858993717	0.0	1.012018896532996	-0.6468120001863841	0.0	1.0073160418034408	-0.48147888996477745	0.0	1.00392586490107	-0.5613375992084711	0.0	1.003812170912992	-0.6295483805948233	0.0
19	0.6375555555555555	0.9214413354391998	-0.5845941503261655	0.0	0.9265127440502748	-0.585354573953883	0.0	0.9621659138822465	-0.687188131937917	0.0	0.9524455741152127	-0.7979401556576023	0.0	0.9914404750864538	-0.8154570875606341	0.0	0.9862943024071033	-0.8191711838366228	0.0	0.9457953060648274	-0.8125994151825482	0.0	0.9188829268261066	-0.5836916320019224	0.0	0.9579264669784735	-0.6859080166900655	0.0	0.9482471790391922	-0.7926402258125513	0.0	0.9873649738630429	-0.8131073555752386	0.0	0.9798660883848316	-0.8084890964524286	0.0	0.9405354883241968	-0.80851512774409	0.0	1.029119756731538	-0.48054933564922	0.0	1.0871988299964548	-0.4381273671301266	0.0	1.0748454555034428	-0.4724967389587663	0.0	1.0292956286950674	-0.4955870010717333	0.0	1.0048109128147746	-0.5669268881967423	0.0	0.984017552775472	-0.6389390144171342	0.0	1.0083022516042897	-0.48025705248749456	0.0	0.9882956562055134	-0.554594080504339	0.0	0.9778813741511939	-0.620073382147308	0.0
20	0.6711111111111111	0.9242070844023025	-0.5831399061140715	0.0	0.9292560890151557	-0.5837640280063288	0.0	0.9620862299548436	-0.6862376860580915	0.0	0.9530994284171986	-0.7966987904026975	0.0	0.9917025269639511	-0.8152281598466052	0.0	0.9860870921169721	-0.8189783872646136	0.0	0.9463749577546469	-0.8116240885732626	0.0	0.9222707923526161	-0.5819319575102595	0.0	0.9580541599431547	-0.6846347922174097	0.0	0.9490596519342719	-0.7916409289669724	0.0	0.9886093683332782	-0.8120114643144438	0.0	0.9806676281131075	-0.8079077010781847	0.0	0.9406902318058455	-0.8078887105032949	0.0	1.030530908493352	-0.47821722044507964	0.0	1.0899747784375098	-0.4372240495555489	0.0	1.0767157239211573	-0.4705600508713742	0.0	1.0293789906568318	-0.49272238852448336	0.0	0.9915663137208875	-0.5559627931042267	0.0	0.9577291690654892	-0.6217206994048453	0.0	1.0099596698669238	-0.477856738217511	0.0	0.9751887271665006	-0.5438470093560503	0.0	0.9553963874626027	-0.6039264308420672	0.0
21	0.7046666666666667	0.9272627233847257	-0.5808260041728668	0.0	0.9317550626618182	-0.5811727706399895	0.0	0.9617538127731897	-0.6846582507636897	0.0	0.9538348987784765	-0.7945287669480915	0.0	0.9917930862252405	-0.8141511301908195	0.0	0.9853241636677971	-0.8179115278246581	0.0	0.9470306296295047	-0.8095934630869188	0.0	0.9263522826009254	-0.5793025180448544	0.0	0.9579756873652128	-0.6828426674145909	0.0	0.9502021160121469	-0.789739687378418	0.0	0.9898772368930251	-0.8098721632112565	0.0	0.981569289305465	-0.806342334545317	0.0	0.9411305631505523	-0.806045503548907	0.0	1.0312321081842075	-0.4746351520285663	0.0	1.0921626939937634	-0.4347728050900214	0.0	1.0778929968324018	-0.46709006141793263	0.0	1.0286074367533073	-0.48784698235601315	0.0	0.9796879825268662	-0.5400089609169954	0.0	0.9349762221650132	-0.5955192374927574	0.0	1.0119118567845042	-0.47421582242580607	0.0	0.9654492560304782	-0.5295014445046609	0.0	0.9372566488851658	-0.5812858297985921	0.0
22	0.7382222222222222	0.9303404298757926	-0.57766306252159	0.0	0.9337393657307493	-0.5775936905582923	0.0	0.9611481076406431	-0.6825285767847493	0.0	0.9545430424499615	-0.7915351978480234	0.0	0.9916563490883715	-0.812201251187195	0.0	0.9840974835552873	-0.8159783896708971	0.0	0.9476572789010728	-0.806586264355965	0.0	0.930487399404108	-0.5758606306554397	0.0	0.9576634236961773	-0.6806405815881971	0.0	0.9514390565602096	-0.7869577437413798	0.0	0.9910454812244337	-0.8068441263900018	0.0	0.9823990967724634	-0.8037247480436442	0.0	0.9417371567002248	-0.8030329560775864	0.0	1.0311855186736607	-0.46981045229561164	0.0	1.0934615175195432	-0.43085922316551	0.0	1.07817510876974	-0.4622115634955497	0.0	1.0270413540518628	-0.48122293483129147	0.0	0.9699316820384623	-0.5199898434368108	0.0	0.9174521765850125	-0.5615120964967386	0.0	1.0136223005537666	-0.46936258892756355	0.0	0.9591251992648065	-0.5118839797282432	0.0	0.9237754941914633	-0.5521980149204769	0.0
23	0.7717777777777778	0.933091451930747	-0.5737199368893543	0.0	0.93502580311077	-0.5731363080343955	0.0	0.9603394848029707	-0.67984855769397	0.0	0.9551016132486791	-0.7878424267523789	0.0	0.9913004896759205	-0.8094671531514626	0.0	0.9826193559057187	-0.8132509770179341	0.0	0.9480963143010827	-0.8027944076156402	0.0	0.9340060905395053	-0.5716587885095232	0.0	0.9572745649724705	-0.6779349322670477	0.0	0.9525468153863749	-0.7834459004403946	0.0	0.9920397453362882	-0.8032451088952568	0.0	0.9830875177440653	-0.8002973616468018	0.0	0.9423740607072318	-0.7991878212850597	0.0	1.0304445006218188	-0.4637791013010402	0.0	1.093617040522881	-0.42561475587023934	0.0	1.07742924992438	-0.4560150713639845	0.0	1.0248668395559992	-0.47330308889636924	0.0	0.9627728997286392	-0.49723767952597325	0.0	0.9060284658883535	-0.5219987940265786	0.0	1.014584127828586	-0.46340136430436885	0.0	0.9556642524933144	-0.4916318683842209	0.0	0.9148797043339931	-0.5176696259895927	0.0
24	0.8053333333333332	0.9351644578673759	-0.5691300132690283	0.0	0.935639128950231	-0.5680537692102284	0.0	0.9595331962105128	-0.6765458851452528	0.0	0.9554227011226104	-0.7836069828486362	0.0	0.9907901460630123	-0.8060445684692168	0.0	0.9812305547941168	-0.8097917811384787	0.0	0.9482269809505077	-0.798463087933807	0.0	0.9364341793745695	-0.5668002400932407	0.0	0.9570212272334603	-0.6745286342404734	0.0	0.9533883037972887	-0.7794423673481563	0.0	0.9928802556611186	-0.7993982748306484	0.0	0.9836589329200991	-0.7964489536429745	0.0	0.9429206189478035	-0.7949509171263596	0.0	1.029059166210292	-0.4567259704820765	0.0	1.092548756293126	-0.4192993276681267	0.0	1.0756117098995486	-0.4486573314164185	0.0	1.022346779348187	-0.4646774260699124	0.0	0.9581126767818909	-0.47331116805420526	0.0	0.9003288211485753	-0.4802790023079946	0.0	1.0144768789234784	-0.45653656207756965	0.0	0.954116412040581	-0.46997431686362184	0.0	0.9100162208657687	-0.4800554097170635	0.0
25	0.8388888888888888	0.9362973882386164	-0.5640332210529613	0.0	0.9357441094532887	-0.5626757142928087	0.0	0.9590692704585027	-0.6725082207033347	0.0	0.9554801595898595	-0.7789820126680993	0.0	0.9902630480499874	-0.8019164298284942	0.0	0.9802597459129875	-0.805584282603599	0.0	0.9479983899398085	-0.7937888682897108	0.0	0.9375572170379691	-0.561449229348248	0.0	0.9571147578270578	-0.6702625559773225	0.0	0.9539102860360128	-0.7751509133440652	0.0	0.9936812825045113	-0.7954561581613123	0.0	0.9842190353386785	-0.792380164252205	0.0	0.9432174502301566	-0.7906873848636031	0.0	1.0270802719133292	-0.44906722561633905	0.0	1.090381476171859	-0.41239679075620833	0.0	1.0728353219133595	-0.4405297040062749	0.0	1.0197465202423739	-0.4559799650285071	0.0	0.9552790199549036	-0.4499127483888312	0.0	0.8988896281514533	-0.439942020349956	0.0	1.0132549052307016	-0.44917253099934384	0.0	0.9533563249292883	-0.44860536755358105	0.0	0.9080605168138982	-0.4424636772216323	0.0
26	0.8724444444444444	0.9363420179352334	-0.5586241682152019	0.0	0.9354307324547014	-0.5573423807945023	0.0	0.9593424971713537	-0.6676841305587836	0.0	0.9552857536835621	-0.7740688536567575	0.0	0.9898799202378574	-0.7969810454648244	0.0	0.9798335975617775	-0.8005786964731659	0.0	0.947421288685609	-0.7888879767283988	0.0	0.9373832680306352	-0.5558847326710267	0.0	0.9577854647341412	-0.6651472527237929	0.0	0.9540858822136788	-0.7706641199161415	0.0	0.9945343182892026	-0.7913965275210123	0.0	0.9848584616294562	-0.7880291442897613	0.0	0.943070094469315	-0.7865944253739284	0.0	1.024627925986437	-0.44146120241095227	0.0	1.087412858709991	-0.4055774542219131	0.0	1.0694467674133536	-0.43234351719447534	0.0	1.0172672044914695	-0.44784340012676904	0.0	0.9533636865184154	-0.42882262884534716	0.0	0.8996524011407082	-0.4042102444321139	0.0	1.0111311781326036	-0.44199536456114275	0.0	0.9524036415168065	-0.4293053329192606	0.0	0.907513375602	-0.4080898928332098	0.0
27	0.9059999999999999	0.9352755900054112	-0.5532964213892463	0.0	0.9346094764460046	-0.5523961253555015	0.0	0.9606517382817781	-0.6622368148779263	0.0	0.9548610450055928	-0.7689416205609331	0.0	0.989699106236457	-0.7912038940641422	0.0	0.9798316333761736	-0.7948097013114397	0.0	0.9465648215655845	-0.7838422727012893	0.0	0.9360995769802553	-0.5505424558576667	0.0	0.9592526743943599	-0.6594770271507806	0.0	0.9539243630463664	-0.7659693171161923	0.0	0.9953405721498434	-0.7871625020077404	0.0	0.9855248553002419	-0.7832826853517425	0.0	0.9423791314283425	-0.7826489544078693	0.0	1.0219259218670351	-0.4347361427115252	0.0	1.0840696017074687	-0.39952612173827823	0.0	1.0660072258413413	-0.4250241297994663	0.0	1.0150061017053398	-0.4409336166328597	0.0	0.9515572982546632	-0.4117170152925565	0.0	0.9004583442826911	-0.3757158776913241	0.0	1.0084878928683187	-0.4358580298125862	0.0	0.9506655671751607	-0.4136276059712508	0.0	0.9068322880083872	-0.3799052394899162	0.0
28	0.9395555555555555	0.9332068513922589	-0.5486585093134838	0.0	0.9330966466062223	-0.5482143224964996	0.0	0.9630688650873614	-0.6566189052353926	0.0	0.9542698492811846	-0.7637413892195222	0.0	0.9896530857154775	-0.7848050320271842	0.0	0.980016509561122	-0.7885265076377723	0.0	0.9455474936881961	-0.7787435976970024	0.0	0.9339777981537373	-0.5459532364707935	0.0	0.9616249581147391	-0.6538090350942674	0.0	0.9535370626542354	-0.7610393670504786	0.0	0.9957922253859932	-0.7827871730592334	0.0	0.986019071408654	-0.7781721350405869	0.0	0.9412355787704207	-0.778623892159647	0.0	1.019263990539416	-0.42976455763643107	0.0	1.080816042307521	-0.3948130541769721	0.0	1.0631388890697795	-0.4194480529927883	0.0	1.0129319290214045	-0.436006456041806	0.0	0.9492811234742421	-0.4000790266190383	0.0	0.8995067000670063	-0.3565660444381261	0.0	1.0057548677793262	-0.4315306752980252	0.0	0.9479436485949444	-0.4027953177971701	0.0	0.9046893726680274	-0.3604915359457291	0.0
